<?xml version="1.0" standalone="no"?>
<!DOCTYPE svg PUBLIC "-//W3C//DTD SVG 20010904//EN"
 "http://www.w3.org/TR/2001/REC-SVG-20010904/DTD/svg10.dtd">
<svg version="1.0" xmlns="http://www.w3.org/2000/svg"
 width="552.000000pt" height="452.000000pt" viewBox="0 0 552.000000 452.000000"
 preserveAspectRatio="xMidYMid meet">

<g transform="translate(0.000000,452.000000) scale(0.100000,-0.100000)"
fill="#000000" stroke="none">
<path d="M2355 3180 c-81 -40 -118 -132 -117 -290 0 -178 48 -316 145 -415 94
-96 185 -99 252 -7 136 186 38 623 -160 713 -51 24 -71 24 -120 -1z"/>
<path d="M3050 3184 c-82 -35 -165 -152 -206 -290 -22 -72 -25 -268 -6 -331 7
-22 27 -63 45 -90 64 -96 158 -96 253 1 97 100 148 243 148 416 -1 150 -38
242 -118 291 -37 23 -69 24 -116 3z"/>
<path d="M1970 2633 c-26 -10 -51 -37 -71 -75 -24 -48 -26 -181 -3 -259 53
-178 190 -322 291 -306 93 15 138 135 108 283 -45 220 -209 400 -325 357z"/>
<path d="M3443 2620 c-85 -43 -169 -161 -207 -289 -9 -31 -16 -90 -16 -135 1
-217 142 -273 286 -113 143 159 183 436 76 530 -32 29 -90 32 -139 7z"/>
<path d="M2715 2229 c-216 -31 -445 -242 -533 -494 -29 -82 -39 -201 -23 -263
14 -52 62 -108 110 -129 86 -37 258 -12 425 60 l78 35 55 -25 c30 -14 57 -22
60 -19 9 8 -75 133 -109 161 -66 55 -127 46 -206 -32 -54 -53 -58 -55 -100
-50 -51 6 -98 37 -94 62 2 9 -4 25 -14 36 -16 18 -15 21 25 73 23 30 50 57 59
61 15 6 15 8 -3 21 -18 13 -18 18 -6 61 15 58 48 104 97 133 46 29 98 23 199
-24 80 -37 95 -56 95 -121 0 -31 -4 -35 -37 -44 -48 -14 -94 -14 -127 -1 -35
13 -33 4 4 -19 26 -15 39 -16 92 -8 75 11 88 20 88 59 0 71 -45 125 -132 155
-75 27 -63 38 54 48 95 9 243 -21 342 -68 133 -63 232 -178 272 -314 l14 -48
-5 61 c-10 129 -101 317 -213 436 -51 54 -143 124 -207 155 -71 36 -182 53
-260 42z"/>
</g>
</svg>
